# xmcd
#
# Track frame offsets:
#	150
#	13750
#	27710
#	44010
#	55773
#	69786
#	77601
#	92176
#	106939
#	118574
#	133802
#	145655
#
# Disc length: 2070 seconds
#
# Revision: 0
# Processed by: cddbd v1.5.2PL0 Copyright (c) Steve Scherf et al.
# Submitted via: EZCDAudioConverter 2.8.0.1
#
DISCID=a108140c
DTITLE=Sped and Vic - Searching Back The Memories
DYEAR=1985
DGENRE=Country
TTITLE0=Ms  Nature
TTITLE1=Riding Out The Heartaches
TTITLE2=Superstitious Cowboy
TTITLE3=Give Me LLove
TTITLE4=God Only Knows The Fool I Am
TTITLE5=Falling In Love With A Woman Blues
TTITLE6=Searching Back The Memories
TTITLE7=I Get The Feeling I'm Gonna Lose You
TTITLE8=It's Enough To Make A Country Boy Cry
TTITLE9=I've Got A Crush On You
TTITLE10=He Is The Love  He Is The Light
TTITLE11=Don't You Cry
EXTD=
EXTT0=
EXTT1=
EXTT2=
EXTT3=
EXTT4=
EXTT5=
EXTT6=
EXTT7=
EXTT8=
EXTT9=
EXTT10=
EXTT11=
PLAYORDER=
